<?xml version="1.0" standalone="no"?>
<!DOCTYPE svg PUBLIC "-//W3C//DTD SVG 20010904//EN"
 "http://www.w3.org/TR/2001/REC-SVG-20010904/DTD/svg10.dtd">
<svg version="1.0" xmlns="http://www.w3.org/2000/svg"
 width="64.000000pt" height="64.000000pt" viewBox="0 0 64.000000 64.000000"
 preserveAspectRatio="xMidYMid meet">
<metadata>
Created by potrace 1.10, written by Peter Selinger 2001-2011
</metadata>
<g transform="translate(0.000000,64.000000) scale(0.100000,-0.100000)"
fill="#000000" stroke="none">
<path d="M192 540 c-8 -14 -23 -20 -48 -20 -45 0 -84 -37 -84 -80 0 -38 39
-80 75 -80 l25 0 0 -140 c0 -133 1 -140 20 -140 19 0 20 7 20 134 0 74 4 146
10 160 14 39 67 68 113 62 35 -4 38 -2 35 17 -7 48 -139 21 -168 -34 -14 -25
-67 -23 -84 3 -17 28 5 52 54 59 43 6 80 36 80 65 0 21 -33 17 -48 -6z"/>
<path d="M380 440 c0 -72 3 -84 24 -105 45 -45 107 -45 152 0 21 21 24 33 24
105 l0 81 -30 -22 c-39 -29 -101 -29 -140 0 l-30 22 0 -81z m160 -33 c0 -38
-25 -67 -58 -67 -36 0 -62 27 -62 65 l0 31 60 0 c60 0 60 0 60 -29z"/>
<path d="M291 326 c-40 -22 -50 -54 -51 -153 0 -86 1 -93 20 -93 19 0 20 7 20
90 0 77 3 93 20 110 11 11 29 20 40 20 11 0 29 -9 40 -20 17 -17 20 -33 20
-110 0 -83 1 -90 20 -90 19 0 20 7 20 96 l0 95 -37 34 c-41 37 -72 43 -112 21z"/>
<path d="M498 283 c-16 -4 -18 -18 -18 -104 0 -92 1 -99 20 -99 19 0 20 7 20
105 0 58 -1 104 -2 104 -2 -1 -11 -3 -20 -6z"/>
</g>
</svg>
